<?xml version="1.0" encoding="UTF-8" standalone="no"?>
<!-- Created with Inkscape (http://www.inkscape.org/) -->

<svg
   xmlns:dc="http://purl.org/dc/elements/1.1/"
   xmlns:cc="http://creativecommons.org/ns#"
   xmlns:rdf="http://www.w3.org/1999/02/22-rdf-syntax-ns#"
   xmlns:svg="http://www.w3.org/2000/svg"
   xmlns="http://www.w3.org/2000/svg"
   xmlns:sodipodi="http://sodipodi.sourceforge.net/DTD/sodipodi-0.dtd"
   xmlns:inkscape="http://www.inkscape.org/namespaces/inkscape"
   version="1.1"
   id="svg10"
   width="1028.2339"
   height="217.52769"
   viewBox="0 0 1028.2339 217.52769"
   sodipodi:docname="goservice2.svg"
   inkscape:version="0.92.0 r">
  <metadata
     id="metadata16">
    <rdf:RDF>
      <cc:Work
         rdf:about="">
        <dc:format>image/svg+xml</dc:format>
        <dc:type
           rdf:resource="http://purl.org/dc/dcmitype/StillImage" />
        <dc:title></dc:title>
      </cc:Work>
    </rdf:RDF>
  </metadata>
  <defs
     id="defs14" />
  <sodipodi:namedview
     pagecolor="#000000"
     bordercolor="#666666"
     borderopacity="1"
     objecttolerance="10"
     gridtolerance="10"
     guidetolerance="10"
     inkscape:pageopacity="0"
     inkscape:pageshadow="2"
     inkscape:window-width="1384"
     inkscape:window-height="855"
     id="namedview12"
     showgrid="false"
     inkscape:zoom="0.70710678"
     inkscape:cx="480.7103"
     inkscape:cy="13.974434"
     inkscape:window-x="56"
     inkscape:window-y="23"
     inkscape:window-maximized="0"
     inkscape:current-layer="svg10"
     inkscape:snap-nodes="false"
     fit-margin-top="0"
     fit-margin-left="0"
     fit-margin-right="0"
     fit-margin-bottom="0" />
  <path
     style="fill:#ffffff;stroke:none"
     d="M 64.585787,190.97938 C 50.854405,187.14343 40.143004,179.37689 31.929633,167.30131 22.841596,153.93977 19.671009,138.23188 23.021914,123.1702 28.717382,97.570162 49.133484,79.511977 75.202582,77.016036 89.270502,75.669128 106.5706,81.85591 117.36151,92.092724 l 5.72428,5.430352 -2.5,2.095006 c -1.375,1.152258 -4.82469,4.303298 -7.66598,7.002318 -4.95078,4.70287 -7.33402,5.99046 -7.33402,3.96234 -6.724182,-7.55966 -20.226976,-12.760226 -29.960708,-11.534658 -12.571649,1.875188 -23.499543,9.608608 -28.784495,20.370138 -4.073629,10.38458 -4.006586,21.8128 0.124723,30.84379 3.006753,6.50977 9.688126,13.69795 15.549499,16.72899 16.410459,5.12505 30.783667,2.8995 42.070981,-6.64109 V 138.5277 H 75.585787 v -22 h 51.000003 v 51.68714 c -8.25376,8.96758 -18.76892,17.50001 -28.500003,21.30476 -7.863463,3.00162 -25.266191,3.75995 -33.5,1.45978 z m 120.108333,0.53233 c -10.93045,-2.30993 -25.09601,-11.3264 -31.89577,-20.30186 -11.00525,-14.52659 -14.79687,-29.2875 -11.86248,-46.18114 8.00087,-46.062076 63.51481,-64.117209 96.06184,-31.242768 30.48448,30.791128 19.64548,80.390328 -20.91192,95.692888 -6.78319,2.55934 -23.71272,3.65567 -31.39167,2.03288 z m 28.11402,-24.30437 c 20.61776,-10.08733 26.24743,-39.06285 10.86056,-55.89854 -17.98495,-19.678403 -47.64388,-15.124967 -58.90678,9.04375 -2.24329,4.81382 -2.64468,7.0411 -2.64468,14.67515 0,7.57847 0.40663,9.86871 2.57444,14.5 3.35058,7.15814 7.13146,11.53698 13.45339,15.58107 7.06942,4.52226 10.58782,5.39419 20.52156,5.08566 6.95933,-0.21615 9.63164,-0.78061 14.14151,-2.98709 z m 160.27765,24.30352 c -9.8704,-1.51477 -19.20967,-5.53593 -29,-12.48636 -10.46258,-7.42769 -10.35715,-6.83724 -2.76691,-15.4968 3.61563,-4.125 6.95276,-7.64932 7.41584,-7.83182 0.46308,-0.1825 2.66457,1.22826 4.89218,3.13501 11.93443,10.21543 28.30186,14.12197 38.12059,9.09854 6.79971,-3.47884 8.99927,-11.49451 4.33927,-15.81325 -3.11348,-2.88547 -8.0442,-4.6781 -21.74643,-7.9062 -18.52864,-4.36514 -26.52404,-9.56854 -31.5409,-20.5268 -6.28875,-13.73644 -0.96517,-29.809981 12.78636,-38.605985 12.2044,-7.806398 30.816,-7.743811 46.40563,0.156053 5.2747,2.672896 15.59437,10.079662 15.59437,11.192597 0,0.901653 -11.94814,15.526805 -12.99638,15.908255 -0.4631,0.16851 -3.03787,-1.27119 -5.72173,-3.19935 -10.45413,-7.51054 -20.27077,-9.851198 -28.78189,-6.8627 -3.84803,1.35116 -5.43915,2.57585 -6.9061,5.31564 -4.31267,8.05472 -0.0348,11.49498 20.58279,16.55254 20.38625,5.00081 27.86328,9.65294 33.57014,20.88698 3.6686,7.22169 3.58371,18.8118 -0.19629,26.80208 -4.69695,9.92853 -15.81478,17.70025 -28.22977,19.73353 -6.49657,1.06398 -8.59409,1.05709 -15.82077,-0.052 z m 454.61233,-0.50481 c -8.80572,-2.46442 -17.15823,-7.53304 -24.86067,-15.08638 -14.3524,-14.07458 -20.3408,-34.66462 -15.74765,-54.14554 3.93209,-16.6772 16.33402,-32.030071 31.65559,-39.187792 18.80658,-8.785795 38.7412,-7.318206 55.85854,4.11231 5.22724,3.490622 13.95565,12.243934 16.18963,16.235832 0.47805,0.85422 -2.10377,3.33388 -7.7835,7.47552 l -8.49882,6.19731 -5.12095,-5.60314 c -8.71156,-9.53184 -20.57152,-13.766204 -32.1676,-11.484818 -12.23319,2.406738 -21.62866,9.456588 -26.4683,19.860388 -3.38427,7.27519 -4.19265,19.68763 -1.7503,26.8754 5.05845,14.88685 18.43075,24.51254 34.00837,24.48001 10.57605,-0.0221 17.53561,-2.99594 25.39919,-10.8532 l 6.32585,-6.32078 7.67415,5.62789 c 4.22078,3.09534 7.82773,5.7539 8.01545,5.90791 1.98207,1.62612 -8.90474,13.58856 -17.12182,18.81346 -9.44503,6.00571 -15.93091,7.87028 -28.71949,8.25632 -8.13039,0.24542 -13.07864,-0.0947 -16.88767,-1.1607 z M 439.58579,80.527702 h 73 V 101.5277 h -51 v 15 h 44 v 22 h -44 v 31 h 50.06766 l -0.56766,21.5 -71.5,0.52526 z M 530.25246,190.86103 529.58579,80.527702 h 23.30366 c 23.01552,0 23.36735,0.03174 28.45545,2.567249 6.18781,3.083519 10.67993,7.96576 13.99828,15.213998 2.03648,4.448261 2.38965,6.520491 2.05289,12.045631 -0.51328,8.42125 -2.8453,13.31397 -9.43753,19.80046 l -5.21092,5.12735 38.83817,55.18058 -24.40602,0.56473 -38.21461,-53 -8.37937,-0.615 v 54.115 z m 44.81886,-77.61613 c 2.19858,-3.13892 1.86141,-6.46117 -0.94008,-9.26265 -2.29571,-2.29572 -3.13692,-2.45455 -13,-2.45455 l -10.54545,0 -0.004,14.5 11.48749,-0.3103 c 10.45346,-0.28236 11.62382,-0.50492 13.00197,-2.4725 z m 169.18114,77.61613 -0.66667,-55.5 V 80.527702 h 22 v 55.499998 55.5 H 755.25246 Z M 909.58579,80.527702 h 73 V 101.5277 h -51 v 15 h 44 v 22 h -44 v 31 h 49 v 22 h -71 z m 85.25,61.894708 c -4.80928,-2.38056 -5.02639,-2.88211 -2.31122,-5.33931 1.78906,-1.61907 2.11514,-1.63104 4.22251,-0.15498 1.25605,0.87977 3.30862,1.59958 4.56122,1.59958 3.7994,0 2.5682,-2.71627 -1.88342,-4.15511 -2.2885,-0.73969 -5.05497,-2.55373 -6.1477,-4.0312 -1.71808,-2.323 -1.82243,-3.08312 -0.7715,-5.62028 1.25292,-3.02483 4.66727,-5.19341 8.17682,-5.19341 2.8637,0 7.9033,2.80775 7.9033,4.40324 0,2.40753 -2.6465,3.85631 -4.8703,2.66615 -2.7099,-1.45029 -6.39528,-1.3661 -5.89502,0.13467 0.22074,0.66223 1.94574,1.5989 3.83332,2.0815 8.6029,2.19945 10.8837,10.61956 3.8605,14.25143 -3.7889,1.9593 -5.64867,1.84745 -10.67851,-0.64228 z M 263.80426,116.7777 c -2.47404,-3.54776 -21.21847,-35.079068 -21.21847,-35.69306 l 26.79224,-2.634197 17.20776,30.116327 c 0,1.8837 -4.26784,4.85068 -8,5.56157 -1.925,0.36666 -4.7375,1.29307 -6.25,2.05869 -1.5125,0.76562 -2.76368,1.04297 -2.78041,0.61635 -0.0167,-0.42662 -0.48908,0.0118 -1.04969,0.97432 -1.41127,2.42301 -2.47167,2.19746 -4.70143,-1 z m 726.95821,-12.5 c 0.17782,-0.6875 2.12332,-6.084878 4.32332,-11.994176 3.66864,-9.854131 4.21431,-10.74466 6.58701,-10.75 2.3763,-0.0053 2.9261,0.893291 6.75,11.033192 2.2897,6.071456 4.163,11.471454 4.163,11.999994 0,0.52855 -1.3142,0.96099 -2.9205,0.96099 -2.432,0 -3.0308,-0.50188 -3.5795,-3 -0.5778,-2.630888 -1.0862,-2.999998 -4.1315,-2.999998 -2.95932,0 -3.62711,0.44338 -4.51835,2.999998 -0.84601,2.42686 -1.61427,3 -4.02131,3 -1.88617,0 -2.85713,-0.45762 -2.65217,-1.25 z m 11.82333,-11.749998 c 0,-0.55 -0.1985,-1 -0.441,-1 -0.2425,0 -0.7191,0.45 -1.059,1 -0.3399,0.55 -0.1415,1 0.441,1 0.5824,0 1.059,-0.45 1.059,-1 z"
     id="path4533"
     inkscape:connector-curvature="0"
     sodipodi:nodetypes="ssssscccccccccccccccssssssscssssssccssssssssssscsccsscscccsssscscsssscccscssccccccccccccccccssssccccccccccsccscccccccccccccccccccccccsccscscssccccssccccsccscsccsscscscsssss" />
  <rect
     style="opacity:1;fill:none;fill-opacity:1;stroke:#ffffff;stroke-width:10;stroke-linecap:round;stroke-linejoin:round;stroke-miterlimit:4;stroke-dasharray:none;stroke-opacity:1"
     id="rect4584"
     width="1018.2338"
     height="152.73506"
     x="5"
     y="59.792637"
     rx="30"
     ry="30" />
  <path
     style="fill:#44a2cb;fill-opacity:1;stroke:none"
     d="m 741.3497,0.13568173 c 1.85881,-1.22799003 40.60432,6.24161997 40.58207,7.82367997 L 666.94378,196.82516 l -36.10976,-8.00711 -17.8395,-99.214508 4.61988,-4.75351 c 3.20905,-3.30187 5.49223,-4.79737 7.47648,-4.89717 2.16835,-0.10905 2.85661,0.30383 2.85661,1.71364 0,4.69241 12.46495,6.55123 19.31427,2.88021 4.1245,-2.2106 5.68573,-1.91251 5.68573,1.08559 0,2.23257 5.69988,36.052028 6.77982,40.227128"
     id="path4533-2"
     inkscape:connector-curvature="0"
     sodipodi:nodetypes="ccccccssssc" />
</svg>
