<?xml version="1.0" encoding="UTF-8" standalone="no"?>
<!-- Created with Inkscape (http://www.inkscape.org/) -->

<svg
   xmlns:dc="http://purl.org/dc/elements/1.1/"
   xmlns:cc="http://creativecommons.org/ns#"
   xmlns:rdf="http://www.w3.org/1999/02/22-rdf-syntax-ns#"
   xmlns:svg="http://www.w3.org/2000/svg"
   xmlns="http://www.w3.org/2000/svg"
   xmlns:sodipodi="http://sodipodi.sourceforge.net/DTD/sodipodi-0.dtd"
   xmlns:inkscape="http://www.inkscape.org/namespaces/inkscape"
   width="250"
   height="367.60553"
   viewBox="0 0 66.145832 97.262299"
   version="1.1"
   id="svg1966"
   inkscape:version="0.92.0 r"
   sodipodi:docname="bucket.svg">
  <defs
     id="defs1960" />
  <sodipodi:namedview
     id="base"
     pagecolor="#ffffff"
     bordercolor="#666666"
     borderopacity="1.0"
     inkscape:pageopacity="0.0"
     inkscape:pageshadow="2"
     inkscape:zoom="0.90213412"
     inkscape:cx="283.92295"
     inkscape:cy="214.8748"
     inkscape:document-units="mm"
     inkscape:current-layer="layer1"
     showgrid="false"
     units="px"
     borderlayer="true"
     inkscape:showpageshadow="false"
     fit-margin-top="0"
     fit-margin-left="0"
     fit-margin-right="0"
     fit-margin-bottom="0"
     inkscape:window-width="1920"
     inkscape:window-height="1035"
     inkscape:window-x="1440"
     inkscape:window-y="23"
     inkscape:window-maximized="0"
     inkscape:snap-nodes="false" />
  <metadata
     id="metadata1963">
    <rdf:RDF>
      <cc:Work
         rdf:about="">
        <dc:format>image/svg+xml</dc:format>
        <dc:type
           rdf:resource="http://purl.org/dc/dcmitype/StillImage" />
        <dc:title />
      </cc:Work>
    </rdf:RDF>
  </metadata>
  <g
     inkscape:label="Layer 1"
     inkscape:groupmode="layer"
     id="layer1"
     transform="translate(17.44529,-245.36266)">
    <path
       style="fill:#72b9d8;fill-opacity:1;stroke-width:0.71833736"
       inkscape:connector-curvature="0"
       d="m -8.6343479,296.71993 c 2.3750733,0 4.3075541,-1.93226 4.3075541,-4.30733 0,-2.37508 -1.9324808,-4.30734 -4.3075541,-4.30734 -2.3750721,0 -4.3073351,1.93226 -4.3073351,4.30734 0,2.37507 1.932263,4.30733 4.3073351,4.30733 z m 0,-5.35094 c 0.575545,0 1.043595,0.46805 1.043595,1.04337 0,0.57535 -0.46805,1.04339 -1.043595,1.04339 -0.5753259,0 -1.0433775,-0.46804 -1.0433775,-1.04339 0,-0.57532 0.4680516,-1.04337 1.0433775,-1.04337 z"
       id="medium-bubble" />
    <path
       style="fill:#72b9d8;fill-opacity:1;stroke-width:0.71833736"
       inkscape:connector-curvature="0"
       d="m 4.8566746,291.06241 c 3.1577679,0 5.7265024,-2.56896 5.7265024,-5.7265 0,-3.15758 -2.5689503,-5.72653 -5.7265024,-5.72653 -3.1575509,0 -5.72628585,2.56895 -5.72628585,5.72653 0,3.15754 2.56873495,5.7265 5.72628585,5.7265 z m 0,-8.18928 c 1.3578054,0 2.4625471,1.10474 2.4625471,2.46254 0,1.35782 -1.1047417,2.46255 -2.4625471,2.46255 -1.3578067,0 -2.46233,-1.10473 -2.46233,-2.46255 0,-1.3578 1.1045233,-2.46254 2.46233,-2.46254 z"
       id="big-bubble" />
    <path
       style="fill:#72b9d8;fill-opacity:1;stroke-width:0.71833736"
       inkscape:connector-curvature="0"
       d="m -4.6866988,281.07687 c 0.2650325,0.62669 0.903245,1.04012 1.5869342,1.00551 0.6812983,-0.0346 1.2816467,-0.5044 1.4809675,-1.15609 0.4343225,-1.4207 -1.19004,-2.64837 -2.4403525,-1.84872 -0.6543133,0.41845 -0.9300092,1.28035 -0.6275492,1.9993 0.04155,0.0979 -0.041125,-0.0981 0,0 z"
       id="tiny-bubble" />
    <path
       style="opacity:1;fill:none;stroke:#e6e6e6;stroke-width:2.75219584;stroke-linecap:butt;stroke-linejoin:round;stroke-miterlimit:4;stroke-dasharray:none;stroke-opacity:1"
       d="m 4.261913,246.94249 30.955184,94.07813 z m 18.311511,94.10965 h 24.572658 z"
       id="mop"
       inkscape:connector-curvature="0"
       sodipodi:nodetypes="cccccc" />
    <path
       id="bucket"
       style="opacity:1;fill:#ffffff;stroke:#e6e6e6;stroke-width:2.9104166;stroke-linecap:round;stroke-linejoin:round;stroke-miterlimit:4;stroke-dasharray:none;stroke-opacity:1;fill-opacity:1"
       d="m 16.930128,329.5301 c 0,0 15.06282,-1.2648 1.88115,-16.22496 l -7.40705,-8.40642 m -24.8216,20.15958 14.67352,-2.82663 v -21.82321 m -17.24623,25.24176 2.58658,-0.58786 2.11631,16.10739 h 26.68888 l 5.0556,-40.79755 -36.44472,0.007 z"
       inkscape:connector-curvature="0"
       sodipodi:nodetypes="csccccccccccc" />
  </g>
</svg>
