<?xml version="1.0" encoding="UTF-8" standalone="no"?>
<!-- Created with Inkscape (http://www.inkscape.org/) -->

<svg
   xmlns:dc="http://purl.org/dc/elements/1.1/"
   xmlns:cc="http://creativecommons.org/ns#"
   xmlns:rdf="http://www.w3.org/1999/02/22-rdf-syntax-ns#"
   xmlns:svg="http://www.w3.org/2000/svg"
   xmlns="http://www.w3.org/2000/svg"
   xmlns:sodipodi="http://sodipodi.sourceforge.net/DTD/sodipodi-0.dtd"
   xmlns:inkscape="http://www.inkscape.org/namespaces/inkscape"
   width="252.50572"
   height="349.5083"
   viewBox="0 0 66.808804 92.474074"
   version="1.1"
   id="svg1966"
   inkscape:version="0.92.0 r"
   sodipodi:docname="bygg.svg">
  <defs
     id="defs1960" />
  <sodipodi:namedview
     id="base"
     pagecolor="#ffffff"
     bordercolor="#666666"
     borderopacity="1.0"
     inkscape:pageopacity="0.0"
     inkscape:pageshadow="2"
     inkscape:zoom="1.8042682"
     inkscape:cx="226.92331"
     inkscape:cy="187.18016"
     inkscape:document-units="mm"
     inkscape:current-layer="layer1"
     showgrid="false"
     units="px"
     borderlayer="true"
     inkscape:showpageshadow="false"
     fit-margin-top="0"
     fit-margin-left="0"
     fit-margin-right="0"
     fit-margin-bottom="0"
     inkscape:window-width="1920"
     inkscape:window-height="1035"
     inkscape:window-x="1440"
     inkscape:window-y="23"
     inkscape:window-maximized="0"
     inkscape:snap-nodes="false"
     showguides="true"
     inkscape:guide-bbox="true" />
  <metadata
     id="metadata1963">
    <rdf:RDF>
      <cc:Work
         rdf:about="">
        <dc:format>image/svg+xml</dc:format>
        <dc:type
           rdf:resource="http://purl.org/dc/dcmitype/StillImage" />
        <dc:title></dc:title>
      </cc:Work>
    </rdf:RDF>
  </metadata>
  <g
     inkscape:label="Layer 1"
     inkscape:groupmode="layer"
     id="layer1"
     transform="translate(17.048714,-246.03266)">
    <rect
       style="opacity:1;fill:#e6e6e6;fill-opacity:1;stroke:none;stroke-width:2.14637685;stroke-linecap:round;stroke-linejoin:round;stroke-miterlimit:4;stroke-dasharray:none;stroke-opacity:1"
       id="dirt2"
       width="23.169598"
       height="46.632477"
       x="21.078466"
       y="271.63754" />
    <path
       style="opacity:1;fill:#e6e6e6;fill-opacity:1;stroke:none;stroke-width:2.25606084;stroke-linecap:round;stroke-linejoin:round;stroke-miterlimit:4;stroke-dasharray:none;stroke-opacity:1"
       d="m -11.769567,251.69406 h 24.049456 v 57.33742 h -24.049456 z"
       id="dirt1"
       inkscape:connector-curvature="0" />
    <path
       style="opacity:1;fill:#ffffff;fill-opacity:1;stroke:none;stroke-width:9.50757027;stroke-linecap:round;stroke-linejoin:round;stroke-miterlimit:4;stroke-dasharray:none;stroke-opacity:1"
       d="M 4.7539062,4.7539062 V 344.75391 H 126.25195 V 4.7539062 Z M 23.900391,23.763672 H 107.10742 V 41.287109 H 23.900391 Z m 0,37.257812 H 107.10742 V 78.544922 H 23.900391 Z m 0,38.949219 H 107.10742 V 117.49414 H 23.900391 Z m 0,38.214847 h 83.207029 v 17.52343 H 23.900391 Z m 0,37.8457 h 83.207029 v 17.52344 H 23.900391 Z m 0,41.5918 h 83.207029 v 17.52343 H 23.900391 Z"
       id="rect8840"
       transform="matrix(0.26458333,0,0,0.26458333,-17.048714,246.03266)"
       inkscape:connector-curvature="0" />
    <path
       id="rect8887"
       transform="rotate(90)"
       style="opacity:1;fill:none;fill-opacity:1;stroke:#72b9d8;stroke-width:0.97108656;stroke-linecap:round;stroke-linejoin:round;stroke-miterlimit:4;stroke-dasharray:none;stroke-opacity:1"
       d="m 252.32027,-11.289998 h 4.63635 v 22.015102 h -4.63635 z m 9.85783,0 h 4.63636 v 22.015102 h -4.63636 z m 10.30521,0 h 4.63635 v 22.015102 h -4.63635 z m 10.11084,0 h 4.63635 v 22.015102 h -4.63635 z m 10.01358,0 h 4.63635 v 22.015102 h -4.63635 z m 11.00457,0 h 4.63636 v 22.015102 h -4.63636 z m 21.96994,10.98795763 V -6.0549796 h 9.96956 v 5.75293923 z m 0,5.79213937 v -5.75293927 h 9.96956 V 5.490099 Z"
       inkscape:connector-curvature="0" />
    <rect
       style="opacity:1;fill:none;fill-opacity:1;stroke:#e6e6e6;stroke-width:2.51752734;stroke-linecap:round;stroke-linejoin:round;stroke-miterlimit:4;stroke-dasharray:none;stroke-opacity:1"
       id="rect8842-4"
       width="31.82774"
       height="89.990471"
       x="-15.78995"
       y="247.25749" />
    <path
       inkscape:connector-curvature="0"
       style="opacity:1;fill:#ffffff;fill-opacity:1;stroke:none;stroke-width:2.51554465;stroke-linecap:round;stroke-linejoin:round;stroke-miterlimit:4;stroke-dasharray:none;stroke-opacity:1"
       d="m 16.694088,267.44324 v 69.13503 h 32.146357 v -69.13503 z m 5.06584,5.02967 h 22.015193 v 4.63641 H 21.759928 Z m 0,9.8578 h 22.015193 v 4.63641 H 21.759928 Z m 0,10.30531 h 22.015193 v 4.63641 H 21.759928 Z m 0,10.11101 h 22.015193 v 4.63641 H 21.759928 Z m 0,10.01335 h 22.015193 v 4.63641 H 21.759928 Z"
       id="rect8840-7"
       sodipodi:nodetypes="cccccccccccccccccccccccccccccc" />
    <path
       id="rect8887-0"
       style="opacity:1;fill:none;fill-opacity:1;stroke:#72b9d8;stroke-width:0.97108656;stroke-linecap:round;stroke-linejoin:round;stroke-miterlimit:4;stroke-dasharray:none;stroke-opacity:1"
       d="m 272.47308,-43.774994 h 4.63636 v 22.015102 h -4.63636 z m 9.85785,0 h 4.63636 v 22.015102 h -4.63636 z m 10.30521,0 h 4.63635 v 22.015102 h -4.63635 z m 10.11084,0 h 4.63635 v 22.015102 h -4.63635 z m 10.01358,0 h 4.63635 v 22.015102 h -4.63635 z m 13.18219,10.987953 v -5.752939 h 9.96955 v 5.752939 z m 0,5.792137 v -5.752939 h 9.96955 v 5.752939 z"
       inkscape:connector-curvature="0"
       transform="rotate(90)" />
    <rect
       style="opacity:1;fill:none;fill-opacity:1;stroke:#e6e6e6;stroke-width:2.51752734;stroke-linecap:round;stroke-linejoin:round;stroke-miterlimit:4;stroke-dasharray:none;stroke-opacity:1"
       id="rect8842-4-8"
       width="31.82774"
       height="70.193672"
       x="16.695049"
       y="267.41031" />
  </g>
</svg>
