<?xml version="1.0" encoding="UTF-8" standalone="no"?>
<!-- Created with Inkscape (http://www.inkscape.org/) -->

<svg
   xmlns:dc="http://purl.org/dc/elements/1.1/"
   xmlns:cc="http://creativecommons.org/ns#"
   xmlns:rdf="http://www.w3.org/1999/02/22-rdf-syntax-ns#"
   xmlns:svg="http://www.w3.org/2000/svg"
   xmlns="http://www.w3.org/2000/svg"
   xmlns:sodipodi="http://sodipodi.sourceforge.net/DTD/sodipodi-0.dtd"
   xmlns:inkscape="http://www.inkscape.org/namespaces/inkscape"
   width="185.7394"
   height="234.53737"
   viewBox="0 0 49.143548 62.054681"
   version="1.1"
   id="svg1966"
   inkscape:version="0.92.0 r"
   sodipodi:docname="teppe.svg">
  <defs
     id="defs1960" />
  <sodipodi:namedview
     id="base"
     pagecolor="#ffffff"
     bordercolor="#666666"
     borderopacity="1.0"
     inkscape:pageopacity="0.0"
     inkscape:pageshadow="2"
     inkscape:zoom="1.8643067"
     inkscape:cx="-45.261138"
     inkscape:cy="122.75434"
     inkscape:document-units="mm"
     inkscape:current-layer="g6708"
     showgrid="false"
     units="px"
     borderlayer="true"
     inkscape:showpageshadow="false"
     fit-margin-top="0"
     fit-margin-left="0"
     fit-margin-right="0"
     fit-margin-bottom="0"
     inkscape:window-width="1920"
     inkscape:window-height="1035"
     inkscape:window-x="1440"
     inkscape:window-y="23"
     inkscape:window-maximized="0"
     inkscape:snap-nodes="false"
     showguides="false" />
  <metadata
     id="metadata1963">
    <rdf:RDF>
      <cc:Work
         rdf:about="">
        <dc:format>image/svg+xml</dc:format>
        <dc:type
           rdf:resource="http://purl.org/dc/dcmitype/StillImage" />
        <dc:title />
      </cc:Work>
    </rdf:RDF>
  </metadata>
  <g
     inkscape:label="Layer 1"
     inkscape:groupmode="layer"
     id="layer1"
     transform="translate(17.44529,-280.57028)">
    <g
       id="g6708"
       transform="matrix(0.16733336,0,0,0.16733336,-24.313321,267.95773)">
      <path
         style="opacity:1;fill:#c5c5c5;fill-opacity:1;stroke:#c5c5c5;stroke-width:4.25555468;stroke-linecap:round;stroke-linejoin:round;stroke-miterlimit:4;stroke-dasharray:none;stroke-opacity:1"
         d="m 61.384793,399.11938 c -2.020984,3.89761 -2.898016,6.13057 -3.145491,10.00082 h -2.063071 c -7.20393,0 -13.00445,2.41679 -13.00445,5.41826 v 24.13393 c 0,3.00147 5.80052,5.41826 13.00445,5.41826 H 319.17944 c 7.20393,0 13.00445,-2.41679 13.00445,-5.41826 v -24.13393 c 0,-2.78086 -4.99832,-5.03358 -11.45945,-5.35351 l 2.56881,-10.06557 c -2.02805,3.91125 -2.90473,6.14538 -3.14858,10.04091 -0.32446,-0.009 -0.63443,-0.0401 -0.96523,-0.0401 h -8.04877 l 2.55341,-10.00082 c -2.02101,3.89766 -2.89804,6.13049 -3.1455,10.00082 h -8.82279 l 2.5534,-10.00082 c -2.02099,3.89761 -2.89802,6.13057 -3.1455,10.00082 h -9.01706 l 2.55339,-10.00082 c -2.02098,3.89761 -2.89802,6.13057 -3.14548,10.00082 h -9.56601 l 2.5534,-10.00082 c -2.02099,3.89761 -2.89493,6.13057 -3.14241,10.00082 h -9.02016 l 2.5534,-10.00082 c -2.02098,3.89761 -2.89494,6.13057 -3.1424,10.00082 h -10.10258 l 2.5534,-10.00082 c -2.02099,3.89761 -2.89494,6.13057 -3.14242,10.00082 h -9.04482 l 2.5534,-10.00082 c -2.02099,3.89761 -2.89803,6.13057 -3.14549,10.00082 h -9.01708 l 2.5534,-10.00082 c -2.02098,3.89761 -2.89802,6.13057 -3.1455,10.00082 h -8.82279 l 2.5534,-10.00082 c -2.02098,3.89761 -2.89801,6.13057 -3.14549,10.00082 h -9.53825 l 2.5534,-10.00082 c -2.02098,3.89761 -2.89802,6.13057 -3.14549,10.00082 h -9.01707 l 2.55339,-10.00082 c -2.02098,3.89761 -2.89802,6.13057 -3.14548,10.00082 h -8.8228 l 2.55339,-10.00082 c -2.02098,3.89761 -2.89802,6.13057 -3.14548,10.00082 h -9.01708 l 2.55339,-10.00082 c -2.02098,3.89761 -2.898,6.13057 -3.14548,10.00082 h -9.56601 l 2.55341,-10.00082 c -2.02101,3.89766 -2.89804,6.13049 -3.1455,10.00082 h -9.01706 l 2.55338,-10.00082 c -2.02099,3.89766 -2.89801,6.13049 -3.14548,10.00082 h -8.82281 l 2.5534,-10.00082 c -2.02099,3.89766 -2.89803,6.13049 -3.14549,10.00082 H 155.435 l 2.55339,-10.00082 c -2.02101,3.89766 -2.89802,6.13049 -3.14548,10.00082 h -8.57609 l 2.55339,-10.00082 c -2.02101,3.89766 -2.89802,6.13049 -3.14548,10.00082 h -9.01708 l 2.5534,-10.00082 c -2.02101,3.89766 -2.89803,6.13049 -3.14549,10.00082 h -8.8228 l 2.5534,-10.00082 c -2.02099,3.89761 -2.89802,6.13057 -3.14549,10.00082 h -9.01708 l 2.5534,-10.0008 c -2.021,3.89765 -2.89803,6.13049 -3.14549,10.00082 h -9.566 l 2.5534,-10.00082 c -2.02099,3.89761 -2.89493,6.13057 -3.14241,10.00082 h -9.017075 l 2.553395,-10.00082 c -2.020984,3.89761 -2.898014,6.13057 -3.145488,10.00082 h -8.825879 l 2.553399,-10.00082 c -2.020984,3.89761 -2.894933,6.13057 -3.142408,10.00082 h -9.02016 l 2.5534,-10.00082 c -2.020986,3.89761 -2.894935,6.13057 -3.142409,10.00082 h -9.812702 l 2.5534,-10.00082 c -2.020977,3.89761 -2.898016,6.13057 -3.145492,10.00082 h -9.017076 z"
         id="rect10475"
         inkscape:connector-curvature="0" />
      <path
         style="fill:none;stroke:#72b9d8;stroke-width:3.83745933;stroke-linecap:butt;stroke-linejoin:miter;stroke-miterlimit:4;stroke-dasharray:none;stroke-opacity:1"
         d="M 279.06517,76.320988 139.65203,371.92938 Z m 6.66412,0 -139.41622,295.608392 z"
         id="carpet-cleaner-pole"
         inkscape:connector-curvature="0" />
      <path
         style="fill:#eef1f1;stroke:#72b9d8;stroke-width:3.83745933;stroke-linecap:butt;stroke-linejoin:miter;stroke-miterlimit:4;stroke-dasharray:none;stroke-opacity:1;fill-opacity:1"
         d="m 103.21675,371.61791 c -5.013561,0 -4.592785,1.88595 -4.628806,7.74346 h 90.855376 c 0,-4.07473 0.57041,-7.74346 -4.27725,-7.74346 z m -28.719572,8.22762 c -7.479607,0 -6.847905,3.29974 -6.90158,13.53487 H 203.13547 c 0,-7.12001 0.84863,-13.53487 -6.3835,-13.53487 z"
         id="carpet-cleaner-head"
         inkscape:connector-curvature="0" />
    </g>
  </g>
</svg>
